<svg width="105" height="22" viewBox="0 0 105 22" fill="none" xmlns="http://www.w3.org/2000/svg" data-darkreader-mode="static">
<path d="M16.2021 0.384308C13.7686 0.384308 11.7834 2.36955 11.7193 4.80306V9.73414C11.271 9.73414 10.8228 9.79818 10.3104 9.79818C9.79811 9.79818 9.34983 9.79818 8.90155 9.86222V4.80306C8.90155 2.36955 6.85228 0.384308 4.35472 0.448348C1.98524 0.448348 0.06404 2.43359 0 4.80306V16.5864C0.06404 19.0199 2.04928 21.0052 4.54684 20.9411C6.98036 20.8771 8.90155 18.9559 8.90155 16.5864V11.6553C9.34983 11.6553 9.79811 11.5913 10.3104 11.5913C10.8228 11.5913 11.271 11.5913 11.7193 11.5273V16.5224C11.7834 18.9559 13.7686 20.9411 16.2661 20.8771C18.6997 20.8131 20.6209 18.8919 20.6209 16.5224V4.80306C20.6209 2.36955 18.6356 0.384308 16.2021 0.384308ZM4.4828 2.17743C5.95572 2.17743 7.10844 3.33015 7.10844 4.80306V9.9903C5.82764 10.1824 4.54684 10.5667 3.33008 11.079C2.81776 11.3351 2.30544 11.5913 1.85716 11.9755V4.80306C1.85716 3.39419 3.00988 2.17743 4.4828 2.17743ZM7.10844 16.5864C7.10844 18.0593 5.95572 19.2121 4.4828 19.2121C3.00988 19.2121 1.85716 18.0593 1.85716 16.5864V15.4337C1.85716 14.4091 2.68968 13.3844 4.09856 12.8081C5.05916 12.3598 6.0838 12.1036 7.17248 11.9115L7.10844 16.5864ZM16.2021 19.2121C14.7292 19.2121 13.5765 18.0593 13.5765 16.5864V11.3992C14.8573 11.2071 16.1381 10.8228 17.3548 10.3105C17.8671 10.0543 18.3795 9.79818 18.8277 9.41394V16.5864C18.8277 18.0593 17.611 19.2121 16.2021 19.2121ZM16.5863 8.64546C15.6257 9.09374 14.6011 9.3499 13.5124 9.54202V4.80306C13.5124 3.33015 14.6652 2.17743 16.1381 2.17743C17.611 2.17743 18.7637 3.33015 18.7637 4.80306V5.95578C18.8277 7.04446 17.9952 8.00506 16.5863 8.64546Z" fill="url(#paint0_linear)"/>
<path d="M80.1781 7.4924C77.4243 7.4924 75.1189 9.7338 75.1829 12.5516C75.1829 15.3053 77.4243 17.6107 80.2421 17.5467C82.9958 17.5467 85.2372 15.3053 85.2372 12.4875C85.2372 9.79784 82.9958 7.4924 80.1781 7.4924ZM83.5722 12.5516C83.5722 14.4087 82.0352 15.9457 80.1781 15.9457C78.3209 15.9457 76.7839 14.4087 76.7839 12.5516C76.7839 10.6944 78.3209 9.15744 80.1781 9.15744C82.0993 9.15744 83.5722 10.6944 83.5722 12.5516Z" fill="#fff"/>
<path d="M49.9508 7.557C49.5025 7.557 49.1183 7.94124 49.1183 8.38952V8.8378C47.069 6.98064 43.867 7.10872 42.0098 9.158C40.1527 11.2073 40.2808 14.4093 42.33 16.2664C44.2512 18.0596 47.1971 18.0596 49.1183 16.2664V16.7147C49.1183 17.163 49.4385 17.5472 49.8867 17.5472C50.335 17.5472 50.7193 17.227 50.7193 16.7788V16.7147V8.38952C50.7833 7.94124 50.3991 7.557 49.9508 7.557ZM49.1183 12.5521C49.1183 14.4093 47.5813 15.9462 45.7241 15.9462C43.867 15.9462 42.33 14.4093 42.33 12.5521C42.33 10.695 43.867 9.158 45.7241 9.158C47.6453 9.158 49.1183 10.695 49.1183 12.5521Z" fill="#fff"/>
<path d="M58.7252 8.32492C58.7252 8.7732 58.341 9.15744 57.8927 9.15744H57.7646C55.9075 9.15744 54.3705 10.6944 54.3705 12.5516C54.3065 12.7437 54.3705 15.3053 54.3705 16.8422C54.3065 17.2905 53.9222 17.6107 53.474 17.5467C53.0897 17.4826 52.7695 17.0984 52.7695 16.7142V8.38896C52.7695 7.94068 53.1538 7.55644 53.602 7.55644H53.6661C54.1144 7.62048 54.4346 7.94068 54.4346 8.38896V8.83724C55.3311 8.00472 56.5479 7.4924 57.8287 7.4924H57.9568C58.341 7.4924 58.7252 7.87664 58.7252 8.32492Z" fill="#fff"/>
<path d="M94.9074 11.7191V16.7142C94.9074 17.1625 94.5231 17.5468 94.0749 17.5468C93.6266 17.5468 93.2423 17.1625 93.2423 16.7142V15.8817V11.7191C93.2423 10.3103 92.0896 9.15754 90.6807 9.15754C90.6167 9.15754 90.5527 9.15754 90.4886 9.15754C89.1438 9.22158 88.1191 10.4383 88.1191 11.7832V12.7438V15.8177V16.6502C88.1191 17.0985 87.7349 17.4827 87.2866 17.4827C86.8383 17.4827 86.4541 17.0985 86.4541 16.6502V8.38906C86.4541 7.94078 86.8383 7.55654 87.2866 7.55654C87.7349 7.55654 88.1191 7.94078 88.1191 8.38906V8.4531C88.7595 7.94078 89.5921 7.62058 90.4886 7.55654C92.7941 7.42846 94.7793 9.22158 94.8433 11.527C94.9074 11.5911 94.9074 11.6551 94.9074 11.7191Z" fill="#fff"/>
<path d="M39.1283 4.61075V16.7783C39.1283 17.2266 38.7441 17.6109 38.2958 17.6109C37.8475 17.6109 37.4633 17.2266 37.4633 16.7783V11.2709H29.1381V16.7783C29.1381 17.2266 28.7539 17.6109 28.3056 17.6109C27.8573 17.6109 27.5371 17.2266 27.5371 16.7783V4.61075C27.5371 4.16247 27.9213 3.77823 28.3696 3.77823C28.8179 3.77823 29.2021 4.16247 29.2021 4.61075V9.92606H37.5914V4.61075C37.5914 4.16247 37.9756 3.77823 38.4239 3.77823C38.7441 3.84227 39.1283 4.16247 39.1283 4.61075Z" fill="#fff"/>
<path d="M73.9666 12.1034V16.7143C73.9666 17.1626 73.5823 17.5468 73.134 17.5468C72.6858 17.5468 72.3015 17.1626 72.3015 16.7143V12.5517V11.463C72.3015 10.1822 71.3409 9.1576 70.0601 9.1576C68.7793 9.1576 67.7547 10.1182 67.7547 11.399C67.7547 11.463 67.7547 11.463 67.7547 11.5271V16.8424C67.7547 17.2907 67.4345 17.6749 66.9862 17.6749C66.5379 17.6749 66.1537 17.3547 66.1537 16.9064V16.8424V12.5517V11.463C66.1537 10.1822 65.1931 9.1576 63.9123 9.1576C62.6315 9.1576 61.6069 10.1182 61.6069 11.399C61.6069 11.463 61.6069 11.463 61.6069 11.5271V16.8424C61.6069 17.2907 61.2867 17.6749 60.8384 17.6749C60.3901 17.6749 60.0059 17.3547 60.0059 16.9064V16.8424V8.5172C60.0059 8.06892 60.3901 7.68468 60.8384 7.68468C61.2226 7.68468 61.6069 8.00488 61.6709 8.38912C63.4 7.17236 65.7695 7.49256 67.0503 9.1576C68.3311 7.42852 70.8286 7.10832 72.4936 8.45316C73.4542 9.22164 74.0306 10.3744 74.0306 11.5911L73.9666 12.1034Z" fill="#fff"/>
<path d="M104.897 8.70961L99.3896 20.621C99.1334 21.0053 98.6211 21.1334 98.2369 20.8772C97.9167 20.6851 97.7245 20.3008 97.8526 19.9166L99.3255 16.7146L95.6753 8.70961C95.4191 8.32537 95.5472 7.81305 95.9314 7.55689C96.3157 7.30073 96.828 7.42881 97.0841 7.81305C97.0841 7.87709 97.1482 7.94113 97.1482 7.94113L100.286 14.6653L103.424 7.94113C103.552 7.49285 104.065 7.30073 104.449 7.42881C104.897 7.55689 105.089 8.06921 104.961 8.45345C104.961 8.64557 104.897 8.70961 104.897 8.70961Z" fill="#fff"/>
<defs>
<linearGradient id="paint0_linear" x1="10.3104" y1="0.384308" x2="-3.90674" y2="14.6015" gradientUnits="userSpaceOnUse">
<stop stop-color="#00E8A2"/>
<stop offset="1" stop-color="#00ADE8"/>
</linearGradient>
</defs>
</svg>